<svg width="13" height="13" viewBox="0 0 13 13" fill="none" xmlns="http://www.w3.org/2000/svg">
<g id="Frame">
<path id="Vector" d="M5.74678 9.13805L3.5 7.75H10.25C10.6642 7.75 11 8.08577 11 8.5C11 8.91423 10.6642 9.25 10.25 9.25H6.14097C6.00173 9.25 5.86525 9.21125 5.74678 9.13805Z" stroke="#46639D" stroke-width="1.25" stroke-linejoin="round"/>
<path id="Vector_2" d="M8 3.25C8.27615 3.25 8.5 3.02615 8.5 2.75C8.5 2.47386 8.27615 2.25 8 2.25C7.72385 2.25 7.5 2.47386 7.5 2.75C7.5 3.02615 7.72385 3.25 8 3.25Z" stroke="#46639D" stroke-width="1.25" stroke-miterlimit="2"/>
<path id="Vector_3" d="M9 8.5C9.99998 7.75 9.625 6.1084 9.375 5.625C9.125 5.1416 8.63733 4.5 8.63733 4.5C8.63733 4.5 8.375 4.5 8.125 4.75C7.45535 5.41965 7 6.25 6.375 6.25C5.75 6.25 4.875 5.75 4.875 5.75" stroke="#46639D" stroke-width="1.25" stroke-miterlimit="2" stroke-linejoin="round"/>
<path id="Vector_4" d="M5.5001 4.24992C4.6009 3.12597 3.90378 2.60838 2.5001 2.51543C2.22456 2.49719 2 2.72379 2 2.99992V7.49992" stroke="#46639D" stroke-width="1.25" stroke-linejoin="round"/>
<path id="Vector_5" d="M2.25 11.25C3.25 11.25 2.98438 10.75 3.75 10.75C4.51562 10.75 4.25 11.25 5.125 11.25C6 11.25 5.75 10.75 6.625 10.75C7.5 10.75 7.35938 11.25 8.125 11.25C8.89062 11.25 8.5 10.75 9.375 10.75C10.25 10.75 10.0156 11.25 11 11.25" stroke="#46639D" stroke-width="1.25" stroke-linejoin="round"/>
</g>
</svg>
