<svg width="13" height="12" viewBox="0 0 13 12" fill="none" xmlns="http://www.w3.org/2000/svg">
<g id="Frame" clip-path="url(#clip0_27_207)">
<path id="Vector" d="M6.5 11C7.8807 11 9.1307 10.4404 10.0355 9.53553C10.9404 8.6307 11.5 7.3807 11.5 6C11.5 4.6193 10.9404 3.3693 10.0355 2.46446C9.1307 1.55964 7.8807 1 6.5 1C5.1193 1 3.8693 1.55964 2.96446 2.46446C2.05964 3.3693 1.5 4.6193 1.5 6C1.5 7.3807 2.05964 8.6307 2.96446 9.53553C3.8693 10.4404 5.1193 11 6.5 11Z" stroke="#7E7E7E" stroke-width="1.25" stroke-linejoin="round"/>
<path id="Vector_2" d="M6.5 7.15625V6.15625C7.32842 6.15625 8 5.48467 8 4.65625C8 3.82782 7.32842 3.15625 6.5 3.15625C5.67158 3.15625 5 3.82782 5 4.65625" stroke="#7E7E7E" stroke-width="1.25" stroke-linejoin="round"/>
<path id="Vector_3" fill-rule="evenodd" clip-rule="evenodd" d="M6.5 9.40625C6.84518 9.40625 7.125 9.12643 7.125 8.78125C7.125 8.43608 6.84518 8.15625 6.5 8.15625C6.15483 8.15625 5.875 8.43608 5.875 8.78125C5.875 9.12643 6.15483 9.40625 6.5 9.40625Z" fill="#7E7E7E"/>
</g>
<defs>
<clipPath id="clip0_27_207">
<rect width="12" height="12" fill="white" transform="translate(0.5)"/>
</clipPath>
</defs>
</svg>
