<svg width="28" height="29" viewBox="0 0 28 29" fill="none" xmlns="http://www.w3.org/2000/svg">
<g id="Frame">
<path id="Vector" fill-rule="evenodd" clip-rule="evenodd" d="M2.91699 6.33341C2.91699 5.68908 3.43933 5.16675 4.08366 5.16675H23.917C24.5613 5.16675 25.0837 5.68908 25.0837 6.33341V22.6667C25.0837 23.3111 24.5613 23.8334 23.917 23.8334H4.08366C3.43933 23.8334 2.91699 23.3111 2.91699 22.6667V6.33341Z" stroke="#9B9B9B" stroke-width="1.25" stroke-linejoin="round"/>
<path id="Vector_2" fill-rule="evenodd" clip-rule="evenodd" d="M8.45801 11C8.94124 11 9.33301 10.6082 9.33301 10.125C9.33301 9.64177 8.94124 9.25 8.45801 9.25C7.97477 9.25 7.58301 9.64177 7.58301 10.125C7.58301 10.6082 7.97477 11 8.45801 11Z" stroke="#9B9B9B" stroke-width="1.25" stroke-linejoin="round"/>
<path id="Vector_3" d="M8.75032 14.5L11.667 16.8333L15.167 12.75L25.0837 20.3333V22.6667C25.0837 23.311 24.5613 23.8333 23.917 23.8333H4.08366C3.43933 23.8333 2.91699 23.311 2.91699 22.6667V20.3333L8.75032 14.5Z" stroke="#9B9B9B" stroke-width="1.25" stroke-linejoin="round"/>
</g>
</svg>
