<svg width="25" height="24" viewBox="0 0 25 24" fill="none" xmlns="http://www.w3.org/2000/svg">
<g id="Frame">
<path id="Vector" d="M10.9936 17.2761L6.5 14.5H20C20.8285 14.5 21.5 15.1715 21.5 16C21.5 16.8285 20.8285 17.5 20 17.5H11.7819C11.5035 17.5 11.2305 17.4225 10.9936 17.2761Z" stroke="#606FA0" stroke-width="1.25" stroke-linejoin="round"/>
<path id="Vector_2" d="M15.5 5.5C16.0523 5.5 16.5 5.0523 16.5 4.5C16.5 3.94771 16.0523 3.5 15.5 3.5C14.9477 3.5 14.5 3.94771 14.5 4.5C14.5 5.0523 14.9477 5.5 15.5 5.5Z" stroke="#606FA0" stroke-width="1.25" stroke-miterlimit="2"/>
<path id="Vector_3" d="M17.5 16C19.5 14.5 18.75 11.2168 18.25 10.25C17.75 9.2832 16.7747 8 16.7747 8C16.7747 8 16.25 8 15.75 8.5C14.4107 9.8393 13.5 11.5 12.25 11.5C11 11.5 9.25 10.5 9.25 10.5" stroke="#606FA0" stroke-width="1.25" stroke-miterlimit="2" stroke-linejoin="round"/>
<path id="Vector_4" d="M10.5002 7.50009C8.7018 5.25219 7.30755 4.217 4.5002 4.03111C3.94912 3.99462 3.5 4.44782 3.5 5.00009V14.0001" stroke="#606FA0" stroke-width="1.25" stroke-linejoin="round"/>
<path id="Vector_5" d="M4 21.5C6 21.5 5.46875 20.5 7 20.5C8.53125 20.5 8 21.5 9.75 21.5C11.5 21.5 11 20.5 12.75 20.5C14.5 20.5 14.2188 21.5 15.75 21.5C17.2812 21.5 16.5 20.5 18.25 20.5C20 20.5 19.5312 21.5 21.5 21.5" stroke="#606FA0" stroke-width="1.25" stroke-linejoin="round"/>
</g>
</svg>
