<svg width="51" height="50" viewBox="0 0 51 50" fill="none" xmlns="http://www.w3.org/2000/svg">
<path d="M30.1837 0H0L51 50V22.449L30.1837 0Z" fill="#E4E8FF"/>
<path d="M18.1259 2.63566C19.8568 2.84743 21.3438 2.77377 22.5868 2.41469L22.9942 3.12594C22.7341 3.18348 22.4717 3.23412 22.207 3.27786L24.8931 5.96403L24.4512 6.40598C23.8781 6.45892 23.3555 6.49805 22.8837 6.52337L24.4857 8.12541L20.9985 11.6126L20.4737 11.0878L20.7361 10.8254L16.731 6.8203L16.441 7.11032L15.9162 6.58552L19.0271 3.47466C18.7416 3.46545 18.4551 3.44819 18.1673 3.42287C18.1673 3.2019 18.1535 2.9395 18.1259 2.63566ZM14.5697 6.34383L21.2057 12.9799L20.7085 13.477L14.0725 6.84101L14.5697 6.34383ZM23.7054 5.74306L21.3542 3.3918C20.857 3.44704 20.3529 3.47696 19.8419 3.48157L22.207 5.84664C22.7548 5.81902 23.2543 5.7845 23.7054 5.74306ZM19.4517 8.60187L21.2057 10.3558L22.1241 9.43742L20.3701 7.68346L19.4517 8.60187ZM17.2006 6.35073L18.9545 8.10469L19.873 7.18628L18.119 5.43232L17.2006 6.35073ZM18.5748 4.97657L20.3287 6.73053L21.2402 5.81902L19.4863 4.06507L18.5748 4.97657ZM23.4914 8.07016L21.7374 6.31621L20.8259 7.22771L22.5798 8.98167L23.4914 8.07016ZM24.5341 15.0791C24.7734 15.2816 25.0243 15.4911 25.2867 15.7075L29.6578 11.3364L29.0709 10.7494L29.5542 10.2661L33.7182 14.43L33.2348 14.9134L32.5788 14.2573L28.4908 18.3453C28.7808 18.5801 29.0755 18.8195 29.3747 19.0635C29.186 19.2154 29.0064 19.3673 28.8361 19.5192C28.5461 19.2844 28.2675 19.0566 28.0005 18.8356L26.6471 20.189L26.1361 19.678L27.4412 18.3729C26.0693 17.2497 24.9438 16.3359 24.0645 15.6315L24.5341 15.0791ZM24.9069 9.87246C26.0716 9.5364 27.2387 9.01389 28.408 8.30495L28.7947 8.96786C28.3757 9.20264 27.9591 9.4167 27.5448 9.61005L28.9397 11.0049L28.4494 11.4952C27.943 11.7346 27.3906 11.9694 26.7921 12.1996C26.7092 11.9602 26.6195 11.7415 26.5228 11.5435C27.0246 11.3732 27.4918 11.1776 27.9246 10.9566L26.875 9.90698C26.1614 10.2154 25.4548 10.4709 24.755 10.6735C24.8333 10.4019 24.8839 10.1349 24.9069 9.87246ZM25.1072 14.3955C24.9231 14.6164 24.7711 14.842 24.6514 15.0722C23.4914 14.888 22.6305 14.796 22.0689 14.796L22.1724 13.988C22.4855 13.988 22.7594 13.8706 22.9942 13.6359L25.9635 10.6666L26.4814 11.1845L23.4361 14.2297C23.9379 14.2804 24.4949 14.3356 25.1072 14.3955ZM27.9246 17.8896L28.988 16.8261L27.089 14.9272L25.8392 16.177C26.4929 16.711 27.188 17.2819 27.9246 17.8896ZM29.0985 12.9177L30.9975 14.8167L32.0678 13.7464L30.1688 11.8474L29.0985 12.9177ZM27.5586 14.4576L29.4576 16.3566L30.5279 15.2862L28.6289 13.3873L27.5586 14.4576ZM33.6353 15.4934L36.7703 18.6284L37.7647 17.6341L38.3309 18.2003L37.3366 19.1947L40.3266 22.1847L39.8225 22.6888L36.8325 19.6988L35.8105 20.7207L37.7578 22.6681L37.2813 23.1445C35.9509 23.6463 34.5986 23.8247 33.2244 23.6797C33.5697 24.8398 34.2476 26.0954 35.2581 27.4465C34.8621 27.511 34.5307 27.58 34.2637 27.6537C33.2095 26.0793 32.5673 24.7028 32.3371 23.5243C31.1195 23.2366 29.69 22.6105 28.0489 21.6461C28.1686 21.3422 28.2491 21.0591 28.2906 20.7967C29.8259 21.7704 31.1402 22.4103 32.2335 22.7164C32.1391 21.4757 32.3831 20.1982 32.9655 18.8839L32.2818 18.2003L32.7859 17.6962L35.2442 20.1545L36.2662 19.1325L33.1312 15.9975L33.6353 15.4934ZM36.5839 22.5023L33.549 19.4674C33.0541 20.6344 32.8861 21.7738 33.0449 22.8856C34.2994 23.0582 35.479 22.9305 36.5839 22.5023ZM42.046 25.0918L45.2086 28.2545L46.7209 26.7422L47.2802 27.3015L45.768 28.8138L46.7693 29.8151L46.2444 30.3399L45.2432 29.3386L41.7491 32.8327C41.0309 33.5509 40.3427 33.59 39.6844 32.9501C39.4634 32.7383 39.1204 32.3908 38.6555 31.9074C38.812 31.7048 38.9823 31.4609 39.1665 31.1754C39.5716 31.6542 39.8938 32.0133 40.1332 32.2527C40.3404 32.469 40.5291 32.5657 40.6995 32.5427C40.8606 32.5289 41.0793 32.3839 41.3555 32.1077L44.6838 28.7793L41.5212 25.6166L42.046 25.0918ZM38.3171 24.8018C39.8501 24.5486 41.4729 23.9755 43.1854 23.0824L43.5376 23.8627C42.8332 24.1849 42.1599 24.4669 41.5177 24.7086L36.3836 29.8427L35.8312 29.2903L39.8674 25.2541C39.1584 25.4521 38.4944 25.5913 37.8752 25.6719C38.1007 25.2806 38.2481 24.9905 38.3171 24.8018ZM40.879 27.1565L41.6317 27.3292C41.5074 28.0151 41.3048 28.876 41.024 29.9118L40.2161 29.7253C40.5245 28.7724 40.7455 27.9161 40.879 27.1565Z" fill="#606FA0"/>
</svg>
