<svg width="16" height="16" viewBox="0 0 16 16" fill="none" xmlns="http://www.w3.org/2000/svg">
<g id="Frame">
<path id="Vector" d="M4.66683 4.99999C6.50778 4.99999 8.00016 4.2538 8.00016 3.33332C8.00016 2.41285 6.50778 1.66666 4.66683 1.66666C2.82588 1.66666 1.3335 2.41285 1.3335 3.33332C1.3335 4.2538 2.82588 4.99999 4.66683 4.99999Z" stroke="#FFC960" stroke-width="1.25" stroke-linejoin="round"/>
<path id="Vector_2" d="M1.3335 3.33334C1.3335 3.33334 1.3335 4.74621 1.3335 5.66668C1.3335 6.58714 2.82588 7.33334 4.66683 7.33334C6.50776 7.33334 8.00016 6.58714 8.00016 5.66668C8.00016 5.12148 8.00016 3.33334 8.00016 3.33334" stroke="#FFC960" stroke-width="1.25" stroke-linejoin="round"/>
<path id="Vector_3" d="M1.3335 5.66666C1.3335 5.66666 1.3335 7.07952 1.3335 7.99999C1.3335 8.92046 2.82588 9.66666 4.66683 9.66666C6.50776 9.66666 8.00016 8.92046 8.00016 7.99999C8.00016 7.45479 8.00016 5.66666 8.00016 5.66666" stroke="#FFC960" stroke-width="1.25" stroke-linejoin="round"/>
<path id="Vector_4" d="M1.3335 8C1.3335 8 1.3335 9.41287 1.3335 10.3333C1.3335 11.2538 2.82588 12 4.66683 12C6.50776 12 8.00016 11.2538 8.00016 10.3333C8.00016 9.78813 8.00016 8 8.00016 8" stroke="#FFC960" stroke-width="1.25" stroke-linejoin="round"/>
<path id="Vector_5" d="M1.3335 10.3333C1.3335 10.3333 1.3335 11.7462 1.3335 12.6667C1.3335 13.5871 2.82588 14.3333 4.66683 14.3333C6.50776 14.3333 8.00016 13.5871 8.00016 12.6667C8.00016 12.1215 8.00016 10.3333 8.00016 10.3333" stroke="#FFC960" stroke-width="1.25" stroke-linejoin="round"/>
<path id="Vector_6" d="M11.3333 9.66668C13.1743 9.66668 14.6667 8.92048 14.6667 8.00001C14.6667 7.07954 13.1743 6.33334 11.3333 6.33334C9.49238 6.33334 8 7.07954 8 8.00001C8 8.92048 9.49238 9.66668 11.3333 9.66668Z" stroke="#FFC960" stroke-width="1.25" stroke-linejoin="round"/>
<path id="Vector_7" d="M8 8C8 8 8 9.41287 8 10.3333C8 11.2538 9.4924 12 11.3333 12C13.1743 12 14.6667 11.2538 14.6667 10.3333C14.6667 9.78813 14.6667 8 14.6667 8" stroke="#FFC960" stroke-width="1.25" stroke-linejoin="round"/>
<path id="Vector_8" d="M8 10.3333C8 10.3333 8 11.7462 8 12.6667C8 13.5871 9.4924 14.3333 11.3333 14.3333C13.1743 14.3333 14.6667 13.5871 14.6667 12.6667C14.6667 12.1215 14.6667 10.3333 14.6667 10.3333" stroke="#FFC960" stroke-width="1.25" stroke-linejoin="round"/>
</g>
</svg>
