<svg width="16" height="16" viewBox="0 0 16 16" fill="none" xmlns="http://www.w3.org/2000/svg">
<path d="M5.35637 4.33334C2.08446 4.4498 1.55861 7.00214 1.70468 8.26377C1.12039 9.31187 1.29866 9.5739 1.7368 10.0106C3.92784 12.0486 8.0178 11.9031 9.91667 11.1752C11.9032 10.36 12.9162 8.8249 13.0136 8C14.7664 6.83544 14.8021 4.8671 14.5587 4.33334C14.2987 4.77004 13.5491 5.0907 13.0136 5.33334C12.4293 5.4498 11.5886 5.01267 11.3452 4.62447C11.1781 5.5 11.3452 6.16667 11.7834 6.5169C12.5459 7.0992 12.1585 7.68777 12.0124 7.83334C11.3802 8.4634 10.1769 8.1635 9.59237 7.24477C8.01777 4.77004 6.33017 4.33334 5.35637 4.33334Z" stroke="#1F1F1F" stroke-linejoin="round"/>
<path d="M1.66666 9.33333C2.61111 9.5107 4.46666 9.8514 5.66666 9" stroke="#1F1F1F" stroke-linejoin="round"/>
<path d="M3.73334 6.8C3.95425 6.8 4.13334 6.62091 4.13334 6.4C4.13334 6.17909 3.95425 6 3.73334 6C3.51242 6 3.33334 6.17909 3.33334 6.4C3.33334 6.62091 3.51242 6.8 3.73334 6.8Z" fill="#1F1F1F"/>
</svg>
