<svg width="20" height="20" viewBox="0 0 20 20" fill="none" xmlns="http://www.w3.org/2000/svg">
<g id="Frame">
<path id="Vector" d="M7.5 2.5H3.33333C2.8731 2.5 2.5 2.8731 2.5 3.33333V7.5C2.5 7.96025 2.8731 8.33333 3.33333 8.33333H7.5C7.96025 8.33333 8.33333 7.96025 8.33333 7.5V3.33333C8.33333 2.8731 7.96025 2.5 7.5 2.5Z" stroke="#6B757B" stroke-linejoin="round"/>
<path id="Vector_2" d="M7.5 11.6666H3.33333C2.8731 11.6666 2.5 12.0397 2.5 12.5V16.6666C2.5 17.1269 2.8731 17.5 3.33333 17.5H7.5C7.96025 17.5 8.33333 17.1269 8.33333 16.6666V12.5C8.33333 12.0397 7.96025 11.6666 7.5 11.6666Z" stroke="#6B757B" stroke-linejoin="round"/>
<path id="Vector_3" d="M14.5832 8.33333C16.194 8.33333 17.4998 7.0275 17.4998 5.41667C17.4998 3.80584 16.194 2.5 14.5832 2.5C12.9723 2.5 11.6665 3.80584 11.6665 5.41667C11.6665 7.0275 12.9723 8.33333 14.5832 8.33333Z" stroke="#6B757B" stroke-linejoin="round"/>
<path id="Vector_4" d="M16.6665 11.6666H12.4998C12.0396 11.6666 11.6665 12.0397 11.6665 12.5V16.6666C11.6665 17.1269 12.0396 17.5 12.4998 17.5H16.6665C17.1268 17.5 17.4998 17.1269 17.4998 16.6666V12.5C17.4998 12.0397 17.1268 11.6666 16.6665 11.6666Z" stroke="#6B757B" stroke-linejoin="round"/>
</g>
</svg>
