<svg width="28" height="29" viewBox="0 0 28 29" fill="none" xmlns="http://www.w3.org/2000/svg">
<g id="Frame">
<path id="Vector" d="M22.75 4H5.25C4.2835 4 3.5 4.7835 3.5 5.75V23.25C3.5 24.2165 4.2835 25 5.25 25H22.75C23.7165 25 24.5 24.2165 24.5 23.25V5.75C24.5 4.7835 23.7165 4 22.75 4Z" stroke="white" stroke-width="1.25" stroke-linejoin="round"/>
<path id="Vector_2" d="M14 17.1978V14.8645C15.933 14.8645 17.5 13.2975 17.5 11.3645C17.5 9.43151 15.933 7.8645 14 7.8645C12.067 7.8645 10.5 9.43151 10.5 11.3645" stroke="white" stroke-width="1.25" stroke-linejoin="round"/>
<path id="Vector_3" fill-rule="evenodd" clip-rule="evenodd" d="M14 21C14.5523 21 15 20.5523 15 20C15 19.4477 14.5523 19 14 19C13.4477 19 13 19.4477 13 20C13 20.5523 13.4477 21 14 21Z" fill="white"/>
</g>
</svg>
