<svg width="16" height="16" viewBox="0 0 16 16" fill="none" xmlns="http://www.w3.org/2000/svg">
<path d="M8 7V14.6667C6.90287 13.3333 3.54287 13.3333 2 13.3333V6C5.29143 6 7.37143 6.66667 8 7Z" stroke="#1F1F1F" stroke-linejoin="round"/>
<path d="M8 7V14.6667C9.09713 13.3333 12.4571 13.3333 14 13.3333V6C10.7086 6 8.62857 6.66667 8 7Z" stroke="#1F1F1F" stroke-linejoin="round"/>
<path d="M7.99999 6.66667C9.47275 6.66667 10.6667 5.47276 10.6667 4C10.6667 2.52724 9.47275 1.33334 7.99999 1.33334C6.52724 1.33334 5.33333 2.52724 5.33333 4C5.33333 5.47276 6.52724 6.66667 7.99999 6.66667Z" stroke="#1F1F1F"/>
</svg>
