<svg width="16" height="17" viewBox="0 0 16 17" fill="none" xmlns="http://www.w3.org/2000/svg">
<g id="Frame">
<path id="Vector" d="M4.66667 11.8333C5.58714 11.8333 6.33333 11.0871 6.33333 10.1667C6.33333 9.24619 5.58714 8.5 4.66667 8.5C3.74619 8.5 3 9.24619 3 10.1667C3 11.0871 3.74619 11.8333 4.66667 11.8333Z" stroke="#1F1F1F" stroke-width="1.25" stroke-linejoin="round"/>
<path id="Vector_2" d="M11.3333 11.8333C12.2538 11.8333 13 11.0871 13 10.1667C13 9.24619 12.2538 8.5 11.3333 8.5C10.4128 8.5 9.66663 9.24619 9.66663 10.1667C9.66663 11.0871 10.4128 11.8333 11.3333 11.8333Z" stroke="#1F1F1F" stroke-width="1.25" stroke-linejoin="round"/>
<path id="Vector_3" d="M8.00004 5.16665C8.92052 5.16665 9.66671 4.42045 9.66671 3.49998C9.66671 2.57951 8.92052 1.83331 8.00004 1.83331C7.07957 1.83331 6.33337 2.57951 6.33337 3.49998C6.33337 4.42045 7.07957 5.16665 8.00004 5.16665Z" stroke="#1F1F1F" stroke-width="1.25" stroke-linejoin="round"/>
<path id="Vector_4" d="M8.00004 15.1666C8.00004 13.3257 6.50764 11.8333 4.66671 11.8333C2.82576 11.8333 1.33337 13.3257 1.33337 15.1666" stroke="#1F1F1F" stroke-width="1.25" stroke-linejoin="round"/>
<path id="Vector_5" d="M14.6667 15.1666C14.6667 13.3257 13.1743 11.8333 11.3333 11.8333C9.4924 11.8333 8 13.3257 8 15.1666" stroke="#1F1F1F" stroke-width="1.25" stroke-linejoin="round"/>
<path id="Vector_6" d="M11.3333 8.50002C11.3333 6.65909 9.84089 5.16669 7.99996 5.16669C6.15903 5.16669 4.66663 6.65909 4.66663 8.50002" stroke="#1F1F1F" stroke-width="1.25" stroke-linejoin="round"/>
</g>
</svg>
