<svg width="25" height="24" viewBox="0 0 25 24" fill="none" xmlns="http://www.w3.org/2000/svg">
<g id="Frame">
<path id="Vector" d="M7.5 7.5C10.2614 7.5 12.5 6.38071 12.5 5C12.5 3.61929 10.2614 2.5 7.5 2.5C4.73858 2.5 2.5 3.61929 2.5 5C2.5 6.38071 4.73858 7.5 7.5 7.5Z" stroke="#FFC960" stroke-width="1.25" stroke-linejoin="round"/>
<path id="Vector_2" d="M2.5 5C2.5 5 2.5 7.1193 2.5 8.5C2.5 9.8807 4.73857 11 7.5 11C10.2614 11 12.5 9.8807 12.5 8.5C12.5 7.6822 12.5 5 12.5 5" stroke="#FFC960" stroke-width="1.25" stroke-linejoin="round"/>
<path id="Vector_3" d="M2.5 8.5C2.5 8.5 2.5 10.6193 2.5 12C2.5 13.3807 4.73857 14.5 7.5 14.5C10.2614 14.5 12.5 13.3807 12.5 12C12.5 11.1822 12.5 8.5 12.5 8.5" stroke="#FFC960" stroke-width="1.25" stroke-linejoin="round"/>
<path id="Vector_4" d="M2.5 12C2.5 12 2.5 14.1193 2.5 15.5C2.5 16.8807 4.73857 18 7.5 18C10.2614 18 12.5 16.8807 12.5 15.5C12.5 14.6822 12.5 12 12.5 12" stroke="#FFC960" stroke-width="1.25" stroke-linejoin="round"/>
<path id="Vector_5" d="M2.5 15.5C2.5 15.5 2.5 17.6193 2.5 19C2.5 20.3807 4.73857 21.5 7.5 21.5C10.2614 21.5 12.5 20.3807 12.5 19C12.5 18.1822 12.5 15.5 12.5 15.5" stroke="#FFC960" stroke-width="1.25" stroke-linejoin="round"/>
<path id="Vector_6" d="M17.5 14.5C20.2614 14.5 22.5 13.3807 22.5 12C22.5 10.6193 20.2614 9.5 17.5 9.5C14.7386 9.5 12.5 10.6193 12.5 12C12.5 13.3807 14.7386 14.5 17.5 14.5Z" stroke="#FFC960" stroke-width="1.25" stroke-linejoin="round"/>
<path id="Vector_7" d="M12.5 12C12.5 12 12.5 14.1193 12.5 15.5C12.5 16.8807 14.7386 18 17.5 18C20.2614 18 22.5 16.8807 22.5 15.5C22.5 14.6822 22.5 12 22.5 12" stroke="#FFC960" stroke-width="1.25" stroke-linejoin="round"/>
<path id="Vector_8" d="M12.5 15.5C12.5 15.5 12.5 17.6193 12.5 19C12.5 20.3807 14.7386 21.5 17.5 21.5C20.2614 21.5 22.5 20.3807 22.5 19C22.5 18.1822 22.5 15.5 22.5 15.5" stroke="#FFC960" stroke-width="1.25" stroke-linejoin="round"/>
</g>
</svg>
