<svg width="20" height="21" viewBox="0 0 20 21" fill="none" xmlns="http://www.w3.org/2000/svg">
<g id="Frame">
<path id="Vector" fill-rule="evenodd" clip-rule="evenodd" d="M7.91668 4.66667C7.91668 5.58712 7.17047 6.33333 6.25001 6.33333C5.32955 6.33333 4.58334 5.58712 4.58334 4.66667C4.58334 3.74619 5.32955 3 6.25001 3C7.17047 3 7.91668 3.74619 7.91668 4.66667ZM6.25001 12.1667C7.17047 12.1667 7.91668 11.4205 7.91668 10.5C7.91668 9.57954 7.17047 8.83333 6.25001 8.83333C5.32955 8.83333 4.58334 9.57954 4.58334 10.5C4.58334 11.4205 5.32955 12.1667 6.25001 12.1667ZM6.25001 18C7.17047 18 7.91668 17.2538 7.91668 16.3333C7.91668 15.4129 7.17047 14.6667 6.25001 14.6667C5.32955 14.6667 4.58334 15.4129 4.58334 16.3333C4.58334 17.2538 5.32955 18 6.25001 18Z" fill="#1F1F1F"/>
<path id="Vector_2" fill-rule="evenodd" clip-rule="evenodd" d="M15.4167 4.66667C15.4167 5.58712 14.6705 6.33333 13.75 6.33333C12.8296 6.33333 12.0833 5.58712 12.0833 4.66667C12.0833 3.74619 12.8296 3 13.75 3C14.6705 3 15.4167 3.74619 15.4167 4.66667ZM13.75 12.1667C14.6705 12.1667 15.4167 11.4205 15.4167 10.5C15.4167 9.57954 14.6705 8.83333 13.75 8.83333C12.8296 8.83333 12.0833 9.57954 12.0833 10.5C12.0833 11.4205 12.8296 12.1667 13.75 12.1667ZM13.75 18C14.6705 18 15.4167 17.2538 15.4167 16.3333C15.4167 15.4129 14.6705 14.6667 13.75 14.6667C12.8296 14.6667 12.0833 15.4129 12.0833 16.3333C12.0833 17.2538 12.8296 18 13.75 18Z" fill="#1F1F1F"/>
</g>
</svg>
