<svg width="16" height="17" viewBox="0 0 16 17" fill="none" xmlns="http://www.w3.org/2000/svg">
<g id="Frame">
<path id="Vector" d="M7.99996 6.49998C9.28862 6.49998 10.3333 5.45531 10.3333 4.16665C10.3333 2.87798 9.28862 1.83331 7.99996 1.83331C6.71129 1.83331 5.66663 2.87798 5.66663 4.16665C5.66663 5.45531 6.71129 6.49998 7.99996 6.49998Z" stroke="#1F1F1F" stroke-linejoin="round"/>
<path id="Vector_2" d="M1.33337 14.1666C1.33337 11.2211 4.01967 8.83331 7.33337 8.83331" stroke="#1F1F1F" stroke-linejoin="round"/>
<path id="Vector_3" d="M10.6167 9.83331C9.90794 9.83331 9.33337 10.5028 9.33337 11.3288C9.33337 12.8242 10.85 14.1837 11.6667 14.5C12.4834 14.1837 14 12.8242 14 11.3288C14 10.5028 13.4255 9.83331 12.7167 9.83331C12.2827 9.83331 11.8989 10.0844 11.6667 10.4687C11.4345 10.0844 11.0507 9.83331 10.6167 9.83331Z" stroke="#1F1F1F" stroke-linejoin="round"/>
</g>
</svg>
