<svg width="16" height="17" viewBox="0 0 16 17" fill="none" xmlns="http://www.w3.org/2000/svg">
<g id="Frame">
<path id="Vector" d="M6.9957 12.1878L4 10.3371H13C13.5523 10.3371 14 10.7848 14 11.3371C14 11.8894 13.5523 12.3371 13 12.3371H7.5213C7.33563 12.3371 7.15367 12.2854 6.9957 12.1878Z" stroke="#606FA0" stroke-width="1.25" stroke-linejoin="round"/>
<path id="Vector_2" d="M10.0002 4.33709C10.3684 4.33709 10.6668 4.03862 10.6668 3.67042C10.6668 3.30223 10.3684 3.00375 10.0002 3.00375C9.63196 3.00375 9.3335 3.30223 9.3335 3.67042C9.3335 4.03862 9.63196 4.33709 10.0002 4.33709Z" stroke="#606FA0" stroke-width="1.25" stroke-miterlimit="2"/>
<path id="Vector_3" d="M11.3335 11.3371C12.6668 10.3371 12.1668 8.14829 11.8335 7.50375C11.5002 6.85922 10.8499 6.00375 10.8499 6.00375C10.8499 6.00375 10.5002 6.00375 10.1668 6.33709C9.27396 7.22995 8.66683 8.33709 7.8335 8.33709C7.00016 8.33709 5.8335 7.67042 5.8335 7.67042" stroke="#606FA0" stroke-width="1.25" stroke-miterlimit="2" stroke-linejoin="round"/>
<path id="Vector_4" d="M6.6668 5.67041C5.46787 4.17181 4.53837 3.48168 2.6668 3.35776C2.29942 3.33343 2 3.63556 2 4.00374V10.0037" stroke="#606FA0" stroke-width="1.25" stroke-linejoin="round"/>
<path id="Vector_5" d="M2.3335 15.0037C3.66683 15.0037 3.31266 14.3371 4.3335 14.3371C5.35433 14.3371 5.00016 15.0037 6.16683 15.0037C7.3335 15.0037 7.00016 14.3371 8.16683 14.3371C9.3335 14.3371 9.146 15.0037 10.1668 15.0037C11.1877 15.0037 10.6668 14.3371 11.8335 14.3371C13.0002 14.3371 12.6877 15.0037 14.0002 15.0037" stroke="#606FA0" stroke-width="1.25" stroke-linejoin="round"/>
</g>
</svg>
