<svg width="51" height="50" viewBox="0 0 51 50" fill="none" xmlns="http://www.w3.org/2000/svg">
<path d="M30.1837 0H0L51 50V22.449L30.1837 0Z" fill="#FFF8EB"/>
<path d="M21.1215 4.8441C22.475 4.96379 23.6788 4.87862 24.733 4.5886L25.1197 5.27913C24.8389 5.34819 24.5512 5.40573 24.2566 5.45177L26.4179 7.61314L25.976 8.05508C25.4374 8.10572 24.9218 8.15636 24.4292 8.207L25.8034 9.58116L22.2333 13.1512L21.7361 12.654L22.0261 12.364L18.8083 9.14612L18.5182 9.43615L18.021 8.93896L21.3287 5.6313C21.1998 5.6313 21.0709 5.6267 20.942 5.61749C21.0157 5.35049 21.0755 5.09269 21.1215 4.8441ZM16.9714 8.93896L22.1643 14.1318L21.7223 14.5737L16.5295 9.3809L16.9714 8.93896ZM21.8604 5.63821L23.8353 7.61314C24.3648 7.55329 24.8734 7.49575 25.3614 7.4405L23.4763 5.55535C22.9607 5.61059 22.4221 5.63821 21.8604 5.63821ZM18.387 6.2666C18.4883 6.59805 18.5827 6.86736 18.6702 7.07452C17.662 7.61314 16.5548 8.20009 15.3487 8.83538L15.031 7.99293C16.1819 7.49575 17.3006 6.9203 18.387 6.2666ZM19.2502 8.70418L20.6175 10.0714L21.5911 9.09778L20.2239 7.73053L19.2502 8.70418ZM21.1008 10.5548L22.4681 11.9221L23.4417 10.9484L22.0745 9.58116L21.1008 10.5548ZM24.8642 9.52592L23.497 8.15866L22.5233 9.13231L23.8906 10.4996L24.8642 9.52592ZM20.6727 7.28168L22.04 8.64894L23.0136 7.67528L21.6464 6.30803L20.6727 7.28168ZM19.7543 3.58732C19.8832 4.39755 19.9707 5.1065 20.0167 5.71417L19.1466 5.78322C19.1144 5.05126 19.0638 4.34231 18.9947 3.65638L19.7543 3.58732ZM21.8742 2.1303C21.9801 2.91751 22.0538 3.64026 22.0952 4.29857L21.2389 4.3262C21.2389 3.65408 21.2044 2.92901 21.1354 2.15101L21.8742 2.1303ZM23.6972 15.6371L23.1448 15.0847L26.9151 11.3144L29.3527 13.752L30.6129 12.4918C29.7244 11.6631 28.7865 10.7781 27.799 9.83666C27.9325 9.64791 28.0706 9.44535 28.2133 9.22899C30.6026 11.563 32.7248 13.5333 34.5801 15.14L34.1519 15.7338C33.2427 14.9167 32.2587 14.0178 31.1999 13.0373L29.9189 14.3182L32.3911 16.7903L29.5392 19.6422C28.9545 20.2269 28.3629 20.22 27.7645 19.6215C27.5573 19.4144 27.2604 19.1128 26.8737 18.7169C27.0164 18.519 27.1683 18.298 27.3294 18.054C27.6517 18.4315 27.9394 18.7468 28.1926 19C28.4872 19.2947 28.775 19.3016 29.0558 19.0208L31.3414 16.7351L29.4218 14.8154L25.3821 18.855L24.8159 18.2888L28.8555 14.2492L26.9704 12.364L23.6972 15.6371ZM34.6353 16.4934L37.7703 19.6284L38.7647 18.6341L39.3309 19.2003L38.3366 20.1947L41.3266 23.1847L40.8225 23.6888L37.8325 20.6988L36.8105 21.7207L38.7578 23.6681L38.2813 24.1445C36.9509 24.6463 35.5986 24.8247 34.2244 24.6797C34.5697 25.8398 35.2476 27.0954 36.2581 28.4465C35.8621 28.511 35.5307 28.58 35.2637 28.6537C34.2095 27.0793 33.5673 25.7028 33.3371 24.5243C32.1195 24.2366 30.69 23.6105 29.0489 22.6461C29.1686 22.3422 29.2491 22.0591 29.2906 21.7967C30.8259 22.7704 32.1402 23.4103 33.2335 23.7164C33.1391 22.4757 33.3831 21.1982 33.9655 19.8839L33.2818 19.2003L33.7859 18.6962L36.2442 21.1545L37.2662 20.1325L34.1312 16.9975L34.6353 16.4934ZM37.5839 23.5023L34.549 20.4674C34.0541 21.6344 33.8861 22.7738 34.0449 23.8856C35.2994 24.0582 36.479 23.9305 37.5839 23.5023ZM43.046 26.0918L46.2086 29.2545L47.7209 27.7422L48.2802 28.3015L46.768 29.8138L47.7693 30.8151L47.2444 31.3399L46.2432 30.3386L42.7491 33.8327C42.0309 34.5509 41.3427 34.59 40.6844 33.9501C40.4634 33.7383 40.1204 33.3908 39.6555 32.9074C39.812 32.7048 39.9823 32.4609 40.1665 32.1754C40.5716 32.6542 40.8938 33.0133 41.1332 33.2527C41.3404 33.469 41.5291 33.5657 41.6995 33.5427C41.8606 33.5289 42.0793 33.3839 42.3555 33.1077L45.6838 29.7793L42.5212 26.6166L43.046 26.0918ZM39.3171 25.8018C40.8501 25.5486 42.4729 24.9755 44.1854 24.0824L44.5376 24.8627C43.8332 25.1849 43.1599 25.4669 42.5177 25.7086L37.3836 30.8427L36.8312 30.2903L40.8674 26.2541C40.1584 26.4521 39.4944 26.5913 38.8752 26.6719C39.1007 26.2806 39.2481 25.9905 39.3171 25.8018ZM41.879 28.1565L42.6317 28.3292C42.5074 29.0151 42.3048 29.876 42.024 30.9118L41.2161 30.7253C41.5245 29.7724 41.7455 28.9161 41.879 28.1565Z" fill="#E79800"/>
</svg>
