<svg width="16" height="16" viewBox="0 0 16 16" fill="none" xmlns="http://www.w3.org/2000/svg">
<g id="Frame" clip-path="url(#clip0_9_5875)">
<path id="Vector" d="M8.00016 14.6668C11.6821 14.6668 14.6668 11.6821 14.6668 8.00016C14.6668 4.31826 11.6821 1.3335 8.00016 1.3335C4.31826 1.3335 1.3335 4.31826 1.3335 8.00016C1.3335 11.6821 4.31826 14.6668 8.00016 14.6668Z" stroke="#9B9B9B" stroke-width="1.25" stroke-linejoin="round"/>
<path id="Vector_2" d="M10.3332 10.3335C10.3332 10.3335 9.6665 11.6668 7.99984 11.6668C6.33317 11.6668 5.6665 10.3335 5.6665 10.3335" stroke="#9B9B9B" stroke-width="1.25" stroke-linejoin="round"/>
<path id="Vector_3" d="M5.66683 8.00016C6.40321 8.00016 7.00016 7.40321 7.00016 6.66683C7.00016 5.93045 6.40321 5.3335 5.66683 5.3335C4.93045 5.3335 4.3335 5.93045 4.3335 6.66683C4.3335 7.40321 4.93045 8.00016 5.66683 8.00016Z" stroke="#9B9B9B" stroke-width="1.25" stroke-linejoin="round"/>
<path id="Vector_4" d="M10.3333 8.00016C11.0697 8.00016 11.6667 7.40321 11.6667 6.66683C11.6667 5.93045 11.0697 5.3335 10.3333 5.3335C9.59695 5.3335 9 5.93045 9 6.66683C9 7.40321 9.59695 8.00016 10.3333 8.00016Z" stroke="#9B9B9B" stroke-width="1.25" stroke-linejoin="round"/>
</g>
<defs>
<clipPath id="clip0_9_5875">
<rect width="16" height="16" fill="white"/>
</clipPath>
</defs>
</svg>
