<svg width="16" height="16" viewBox="0 0 16 16" fill="none" xmlns="http://www.w3.org/2000/svg">
<path d="M3.61929 3.28601C2.41285 4.49243 1.66666 6.1591 1.66666 8.00007C1.66666 9.841 2.41285 11.5077 3.61929 12.7141" stroke="#1F1F1F"/>
<path d="M13.0474 12.7141C14.2538 11.5077 15 9.841 15 8.00007C15 6.1591 14.2538 4.49243 13.0474 3.28601" stroke="#1F1F1F"/>
<path d="M11.6331 11.2999C12.4776 10.4554 13 9.28873 13 8.00007C13 6.7114 12.4776 5.54473 11.6331 4.70023" stroke="#1F1F1F"/>
<path d="M5.03349 4.70023C4.18899 5.54473 3.66666 6.7114 3.66666 8.00007C3.66666 9.28873 4.18899 10.4554 5.03349 11.2999" stroke="#1F1F1F"/>
<path d="M9.39393 6.66666C10.0968 6.66666 10.6667 7.20393 10.6667 7.86666C10.6667 8.7294 9.81817 9.46666 9.39393 9.86666C9.1111 10.1333 8.75757 10.4 8.33333 10.6667C7.9091 10.4 7.55557 10.1333 7.27273 9.86666C6.8485 9.46666 6 8.7294 6 7.86666C6 7.20393 6.56983 6.66666 7.27273 6.66666C7.71543 6.66666 8.10533 6.87976 8.33333 7.2031C8.56133 6.87976 8.95123 6.66666 9.39393 6.66666Z" stroke="#1F1F1F" stroke-linejoin="round"/>
</svg>
