<svg width="16" height="16" viewBox="0 0 16 16" fill="none" xmlns="http://www.w3.org/2000/svg">
<g id="Frame">
<path id="Vector" fill-rule="evenodd" clip-rule="evenodd" d="M1.6665 3.33317C1.6665 2.96498 1.96498 2.6665 2.33317 2.6665H13.6665C14.0347 2.6665 14.3332 2.96498 14.3332 3.33317V12.6665C14.3332 13.0347 14.0347 13.3332 13.6665 13.3332H2.33317C1.96498 13.3332 1.6665 13.0347 1.6665 12.6665V3.33317Z" stroke="#9B9B9B" stroke-width="1.25" stroke-linejoin="round"/>
<path id="Vector_2" fill-rule="evenodd" clip-rule="evenodd" d="M4.8335 6C5.10963 6 5.3335 5.77613 5.3335 5.5C5.3335 5.22387 5.10963 5 4.8335 5C4.55736 5 4.3335 5.22387 4.3335 5.5C4.3335 5.77613 4.55736 6 4.8335 6Z" stroke="#9B9B9B" stroke-width="1.25" stroke-linejoin="round"/>
<path id="Vector_3" d="M4.99984 8L6.6665 9.33333L8.6665 7L14.3332 11.3333V12.6667C14.3332 13.0349 14.0347 13.3333 13.6665 13.3333H2.33317C1.96498 13.3333 1.6665 13.0349 1.6665 12.6667V11.3333L4.99984 8Z" stroke="#9B9B9B" stroke-width="1.25" stroke-linejoin="round"/>
</g>
</svg>
