<svg width="12" height="12" viewBox="0 0 12 12" fill="none" xmlns="http://www.w3.org/2000/svg">
<g id="Frame" clip-path="url(#clip0_4_679)">
<path id="Vector" d="M6 11C7.3807 11 8.6307 10.4404 9.53553 9.53553C10.4404 8.6307 11 7.3807 11 6C11 4.6193 10.4404 3.3693 9.53553 2.46446C8.6307 1.55964 7.3807 1 6 1C4.6193 1 3.3693 1.55964 2.46446 2.46446C1.55964 3.3693 1 4.6193 1 6C1 7.3807 1.55964 8.6307 2.46446 9.53553C3.3693 10.4404 4.6193 11 6 11Z" fill="#9FA9CA" stroke="black" stroke-linejoin="round"/>
<path id="Vector_2" d="M4 6L5.5 7.5L8.5 4.5" stroke="black" stroke-linejoin="round"/>
</g>
<defs>
<clipPath id="clip0_4_679">
<rect width="12" height="12" fill="white"/>
</clipPath>
</defs>
</svg>
