<svg width="12" height="12" viewBox="0 0 12 12" fill="none" xmlns="http://www.w3.org/2000/svg">
<g id="Frame" clip-path="url(#clip0_85_1172)">
<path id="Vector" d="M6 11C7.3807 11 8.6307 10.4404 9.53553 9.53553C10.4404 8.6307 11 7.3807 11 6C11 4.6193 10.4404 3.3693 9.53553 2.46446C8.6307 1.55964 7.3807 1 6 1C4.6193 1 3.3693 1.55964 2.46446 2.46446C1.55964 3.3693 1 4.6193 1 6C1 7.3807 1.55964 8.6307 2.46446 9.53553C3.3693 10.4404 4.6193 11 6 11Z" stroke="#8D8D8D" stroke-linejoin="round"/>
<path id="Vector_2" d="M6 7.15625V6.15625C6.82842 6.15625 7.5 5.48467 7.5 4.65625C7.5 3.82783 6.82842 3.15625 6 3.15625C5.17158 3.15625 4.5 3.82783 4.5 4.65625" stroke="#8D8D8D" stroke-linejoin="round"/>
<path id="Vector_3" fill-rule="evenodd" clip-rule="evenodd" d="M6 9.40625C6.34517 9.40625 6.625 9.12642 6.625 8.78125C6.625 8.43608 6.34517 8.15625 6 8.15625C5.65483 8.15625 5.375 8.43608 5.375 8.78125C5.375 9.12642 5.65483 9.40625 6 9.40625Z" fill="#8D8D8D"/>
</g>
<defs>
<clipPath id="clip0_85_1172">
<rect width="12" height="12" fill="white"/>
</clipPath>
</defs>
</svg>
