<svg width="16" height="16" viewBox="0 0 16 16" fill="none" xmlns="http://www.w3.org/2000/svg">
<path d="M5.35637 4.33333C2.08446 4.44979 1.55861 7.00213 1.70468 8.26376C1.12039 9.31186 1.29866 9.57389 1.7368 10.0106C3.92784 12.0486 8.0178 11.9031 9.91667 11.1752C11.9032 10.36 12.9162 8.82489 13.0136 7.99999C14.7664 6.83543 14.8021 4.86709 14.5587 4.33333C14.2987 4.77003 13.5491 5.09069 13.0136 5.33333C12.4293 5.44979 11.5886 5.01266 11.3452 4.62446C11.1781 5.49999 11.3452 6.16666 11.7834 6.51689C12.5459 7.09919 12.1585 7.68776 12.0124 7.83333C11.3802 8.46339 10.1769 8.16349 9.59237 7.24476C8.01777 4.77003 6.33017 4.33333 5.35637 4.33333Z" fill="#9FA9CA" stroke="#1F1F1F" stroke-linejoin="round"/>
<path d="M1.66666 9.33333C2.61111 9.5107 4.46666 9.8514 5.66666 9" stroke="#1F1F1F" stroke-linejoin="round"/>
<path d="M3.73334 6.8C3.95425 6.8 4.13334 6.62091 4.13334 6.4C4.13334 6.17909 3.95425 6 3.73334 6C3.51242 6 3.33334 6.17909 3.33334 6.4C3.33334 6.62091 3.51242 6.8 3.73334 6.8Z" fill="#1F1F1F"/>
</svg>
