<svg width="16" height="16" viewBox="0 0 16 16" fill="none" xmlns="http://www.w3.org/2000/svg">
<path d="M4.66666 5C6.50761 5 8 4.25381 8 3.33333C8 2.41286 6.50761 1.66666 4.66666 1.66666C2.82571 1.66666 1.33333 2.41286 1.33333 3.33333C1.33333 4.25381 2.82571 5 4.66666 5Z" stroke="#1F1F1F" stroke-linejoin="round"/>
<path d="M1.33333 3.33334C1.33333 3.33334 1.33333 4.7462 1.33333 5.66667C1.33333 6.58714 2.82571 7.33334 4.66666 7.33334C6.5076 7.33334 8 6.58714 8 5.66667C8 5.12147 8 3.33334 8 3.33334" stroke="#1F1F1F" stroke-linejoin="round"/>
<path d="M1.33333 5.66666C1.33333 5.66666 1.33333 7.07953 1.33333 8C1.33333 8.92046 2.82571 9.66666 4.66666 9.66666C6.5076 9.66666 8 8.92046 8 8C8 7.4548 8 5.66666 8 5.66666" stroke="#1F1F1F" stroke-linejoin="round"/>
<path d="M1.33333 8C1.33333 8 1.33333 9.41287 1.33333 10.3333C1.33333 11.2538 2.82571 12 4.66666 12C6.5076 12 8 11.2538 8 10.3333C8 9.78813 8 8 8 8" stroke="#1F1F1F" stroke-linejoin="round"/>
<path d="M1.33333 10.3333C1.33333 10.3333 1.33333 11.7462 1.33333 12.6667C1.33333 13.5871 2.82571 14.3333 4.66666 14.3333C6.5076 14.3333 8 13.5871 8 12.6667C8 12.1215 8 10.3333 8 10.3333" stroke="#1F1F1F" stroke-linejoin="round"/>
<path d="M11.3333 9.66667C13.1743 9.66667 14.6667 8.92048 14.6667 8C14.6667 7.07953 13.1743 6.33334 11.3333 6.33334C9.49238 6.33334 8 7.07953 8 8C8 8.92048 9.49238 9.66667 11.3333 9.66667Z" stroke="#1F1F1F" stroke-linejoin="round"/>
<path d="M8 8C8 8 8 9.41287 8 10.3333C8 11.2538 9.4924 12 11.3333 12C13.1743 12 14.6667 11.2538 14.6667 10.3333C14.6667 9.78813 14.6667 8 14.6667 8" stroke="#1F1F1F" stroke-linejoin="round"/>
<path d="M8 10.3333C8 10.3333 8 11.7462 8 12.6667C8 13.5871 9.4924 14.3333 11.3333 14.3333C13.1743 14.3333 14.6667 13.5871 14.6667 12.6667C14.6667 12.1215 14.6667 10.3333 14.6667 10.3333" stroke="#1F1F1F" stroke-linejoin="round"/>
</svg>
